<svg viewBox="0 0 1496 465" fill="none" xmlns="http://www.w3.org/2000/svg">
    <g clip-path="url(#clip0_121_12)">
        <g clip-path="url(#clip1_121_12)">
            <g clip-path="url(#clip2_121_12)">
                <path d="M0.0217285 281.248V54.5083C0.0217285 48.2805 1.20078 42.3853 3.55888 36.8226C5.91698 31.3203 9.18203 26.5437 13.3541 22.4926C17.4656 18.4415 22.3027 15.1765 27.8654 12.6974C33.3677 10.2789 39.2327 9.06961 45.4605 9.06961H217.692C223.92 9.06961 229.785 10.2789 235.287 12.6974C240.85 15.1765 245.687 18.4415 249.799 22.4926C253.91 26.5437 257.175 31.3203 259.594 36.8226C261.952 42.3853 263.131 48.2805 263.131 54.5083V95.4122H217.692V54.5083H45.4605V281.248H217.692V240.435H263.131V281.248C263.131 287.416 261.952 293.281 259.594 298.843C257.175 304.346 253.91 309.183 249.799 313.355C245.687 317.466 240.85 320.701 235.287 323.059C229.785 325.417 223.92 326.596 217.692 326.596H45.4605C39.2327 326.596 33.3677 325.417 27.8654 323.059C22.3027 320.701 17.4656 317.466 13.3541 313.355C9.18203 309.183 5.91698 304.346 3.55888 298.843C1.20078 293.281 0.0217285 287.416 0.0217285 281.248ZM331.244 282.972V223.656C331.244 217.61 332.393 211.957 334.69 206.696C336.988 201.436 340.102 196.81 344.032 192.82C347.902 188.829 352.497 185.715 357.818 183.478C363.139 181.18 368.762 180.032 374.687 180.032H487.15V134.412H344.758V90.7867H487.15C493.197 90.7867 498.88 91.9355 504.201 94.2332C509.522 96.5308 514.148 99.6145 518.078 103.484C521.947 107.414 525.031 112.04 527.329 117.361C529.626 122.682 530.775 128.365 530.775 134.412V326.596H487.15V286.781C486.727 292.223 485.246 297.362 482.706 302.199C480.227 307.097 477.023 311.36 473.092 314.987C469.162 318.615 464.688 321.457 459.669 323.513C454.651 325.569 449.36 326.596 443.798 326.596H374.687C368.762 326.596 363.139 325.448 357.818 323.15C352.497 320.852 347.902 317.769 344.032 313.899C340.102 309.969 336.988 305.343 334.69 300.023C332.393 294.702 331.244 289.018 331.244 282.972ZM374.687 223.656V282.972H487.15V223.656H374.687ZM736.655 134.412H646.775V326.596H603.423V90.7867H646.775V132.416C647.078 126.672 648.408 121.23 650.766 116.091C653.124 111.012 656.268 106.598 660.198 102.849C664.068 99.1005 668.603 96.1378 673.803 93.9611C678.942 91.8449 684.475 90.7867 690.4 90.7867H736.655C742.702 90.7867 748.355 91.9355 753.615 94.2332C758.876 96.5308 763.501 99.6145 767.492 103.484C771.483 107.414 774.596 112.04 776.834 117.361C779.131 122.682 780.28 128.365 780.28 134.412V174.227H736.655V134.412ZM884.308 281.248H1000.4C1021.5 281.248 1037.74 275.565 1049.1 264.198C1060.47 252.83 1066.15 236.566 1066.15 215.403V120.263C1066.15 109.924 1064.67 100.673 1061.71 92.51C1058.75 84.4078 1054.42 77.5149 1048.74 71.8313C1043.06 66.1476 1036.16 61.8245 1028.06 58.8617C1019.96 55.9594 1010.74 54.5083 1000.4 54.5083H884.308V281.248ZM1000.4 326.596H838.96V9.06961H1000.4C1017.39 9.06961 1032.69 11.6998 1046.29 16.9602C1059.96 22.1601 1071.63 29.5971 1081.3 39.2714C1090.97 48.9456 1098.44 60.6454 1103.7 74.3708C1108.9 88.0961 1111.5 103.393 1111.5 120.263V215.403C1111.5 232.273 1108.9 247.57 1103.7 261.295C1098.44 275.021 1090.97 286.72 1081.3 296.395C1071.63 306.069 1059.96 313.506 1046.29 318.706C1032.69 323.966 1017.39 326.596 1000.4 326.596ZM1179.71 0H1223.15V326.596H1179.71V0ZM1495.24 134.412V230.912H1339.15V282.972H1495.24V326.596H1339.15C1333.22 326.596 1327.6 325.448 1322.28 323.15C1316.96 320.852 1312.33 317.769 1308.4 313.899C1304.53 309.969 1301.45 305.343 1299.15 300.023C1296.85 294.702 1295.71 289.018 1295.71 282.972V134.412C1295.71 128.365 1296.85 122.682 1299.15 117.361C1301.45 112.04 1304.53 107.414 1308.4 103.484C1312.33 99.6145 1316.96 96.5308 1322.28 94.2332C1327.6 91.9355 1333.22 90.7867 1339.15 90.7867H1451.61C1457.66 90.7867 1463.34 91.9355 1468.66 94.2332C1473.98 96.5308 1478.58 99.6145 1482.45 103.484C1486.38 107.414 1489.49 112.04 1491.79 117.361C1494.09 122.682 1495.24 128.365 1495.24 134.412ZM1451.61 134.412H1339.15V187.287H1451.61V134.412Z" fill="currentColor"/>
            </g>
        </g>
        <g clip-path="url(#clip3_121_12)">
            <g clip-path="url(#clip4_121_12)">
                <path d="M493.453 455.588V412.361C493.453 411.174 493.678 410.05 494.127 408.989C494.577 407.94 495.2 407.029 495.995 406.257C496.779 405.485 497.701 404.862 498.761 404.39C499.81 403.929 500.929 403.698 502.116 403.698H534.951C536.139 403.698 537.257 403.929 538.306 404.39C539.366 404.862 540.288 405.485 541.072 406.257C541.856 407.029 542.479 407.94 542.94 408.989C543.389 410.05 543.614 411.174 543.614 412.361V420.159H534.951V412.361H502.116V455.588H534.951V440.891H518.525V432.228H543.614V455.588C543.614 456.764 543.389 457.882 542.94 458.943C542.479 459.992 541.856 460.914 541.072 461.709C540.288 462.493 539.366 463.11 538.306 463.559C537.257 464.009 536.139 464.234 534.951 464.234H502.116C500.929 464.234 499.81 464.009 498.761 463.559C497.701 463.11 496.779 462.493 495.995 461.709C495.2 460.914 494.577 459.992 494.127 458.943C493.678 457.882 493.453 456.764 493.453 455.588ZM558.294 455.917V419.277H566.559V455.917H589.746V419.277H598.063V464.234H589.746V456.643C589.654 457.68 589.371 458.66 588.899 459.582C588.415 460.516 587.804 461.329 587.066 462.02C586.317 462.712 585.464 463.254 584.507 463.646C583.55 464.038 582.536 464.234 581.464 464.234H566.559C565.441 464.234 564.375 464.015 563.36 463.576C562.346 463.138 561.464 462.551 560.715 461.813C559.977 461.064 559.389 460.182 558.951 459.167C558.513 458.153 558.294 457.069 558.294 455.917ZM649.936 427.594V445.992H620.178V455.917H649.936V464.234H620.178C619.048 464.234 617.976 464.015 616.962 463.576C615.948 463.138 615.072 462.551 614.334 461.813C613.585 461.064 612.991 460.182 612.553 459.167C612.115 458.153 611.896 457.069 611.896 455.917V427.594C611.896 426.441 612.115 425.358 612.553 424.343C612.991 423.329 613.585 422.447 614.334 421.698C615.072 420.96 615.948 420.372 616.962 419.934C617.976 419.496 619.048 419.277 620.178 419.277H641.619C642.772 419.277 643.855 419.496 644.87 419.934C645.884 420.372 646.766 420.96 647.515 421.698C648.253 422.447 648.841 423.329 649.279 424.343C649.717 425.358 649.936 426.441 649.936 427.594ZM641.619 427.594H620.178V437.675H641.619V427.594ZM662.887 455.917H690.915V445.49H671.204C670.051 445.49 668.967 445.271 667.953 444.833C666.938 444.395 666.062 443.807 665.325 443.069C664.575 442.32 663.982 441.438 663.544 440.424C663.106 439.41 662.887 438.326 662.887 437.173V427.594C662.887 426.441 663.106 425.358 663.544 424.343C663.982 423.329 664.575 422.447 665.325 421.698C666.062 420.96 666.938 420.372 667.953 419.934C668.967 419.496 670.051 419.277 671.204 419.277H697.503V427.594H671.204V437.173H690.915C692.068 437.173 693.146 437.392 694.149 437.83C695.151 438.268 696.033 438.856 696.794 439.594C697.555 440.343 698.149 441.225 698.575 442.24C699.013 443.254 699.232 444.337 699.232 445.49V455.917C699.232 457.069 699.013 458.153 698.575 459.167C698.149 460.182 697.555 461.064 696.794 461.813C696.033 462.551 695.151 463.138 694.149 463.576C693.146 464.015 692.068 464.234 690.915 464.234H662.887V455.917ZM711.301 455.917H739.33V445.49H719.618C718.465 445.49 717.382 445.271 716.367 444.833C715.353 444.395 714.477 443.807 713.739 443.069C712.99 442.32 712.396 441.438 711.958 440.424C711.52 439.41 711.301 438.326 711.301 437.173V427.594C711.301 426.441 711.52 425.358 711.958 424.343C712.396 423.329 712.99 422.447 713.739 421.698C714.477 420.96 715.353 420.372 716.367 419.934C717.382 419.496 718.465 419.277 719.618 419.277H745.918V427.594H719.618V437.173H739.33C740.494 437.173 741.572 437.392 742.563 437.83C743.566 438.268 744.448 438.856 745.209 439.594C745.969 440.343 746.569 441.225 747.007 442.24C747.433 443.254 747.647 444.337 747.647 445.49V455.917C747.647 457.069 747.433 458.153 747.007 459.167C746.569 460.182 745.969 461.064 745.209 461.813C744.448 462.551 743.566 463.138 742.563 463.576C741.572 464.015 740.494 464.234 739.33 464.234H711.301V455.917ZM786.517 455.917V444.608C786.517 443.456 786.736 442.378 787.174 441.375C787.612 440.372 788.205 439.49 788.955 438.729C789.692 437.969 790.568 437.375 791.583 436.949C792.597 436.51 793.669 436.291 794.799 436.291H816.24V427.594H789.093V419.277H816.24C817.392 419.277 818.476 419.496 819.49 419.934C820.505 420.372 821.387 420.96 822.136 421.698C822.874 422.447 823.461 423.329 823.899 424.343C824.338 425.358 824.557 426.441 824.557 427.594V464.234H816.24V456.643C816.159 457.68 815.876 458.66 815.392 459.582C814.92 460.516 814.309 461.329 813.559 462.02C812.81 462.712 811.957 463.254 811 463.646C810.044 464.038 809.035 464.234 807.975 464.234H794.799C793.669 464.234 792.597 464.015 791.583 463.576C790.568 463.138 789.692 462.551 788.955 461.813C788.205 461.064 787.612 460.182 787.174 459.167C786.736 458.153 786.517 457.069 786.517 455.917ZM794.799 444.608V455.917H816.24V444.608H794.799ZM894.031 427.594H872.591V455.917H894.031V448.326H902.348V455.917C902.348 457.069 902.129 458.153 901.691 459.167C901.253 460.182 900.665 461.064 899.928 461.813C899.178 462.551 898.296 463.138 897.282 463.576C896.268 464.015 895.184 464.234 894.031 464.234H872.591C871.461 464.234 870.389 464.015 869.375 463.576C868.36 463.138 867.484 462.551 866.746 461.813C865.997 461.064 865.403 460.182 864.965 459.167C864.527 458.153 864.308 457.069 864.308 455.917V427.594C864.308 426.441 864.527 425.358 864.965 424.343C865.403 423.329 865.997 422.447 866.746 421.698C867.484 420.96 868.36 420.372 869.375 419.934C870.389 419.496 871.461 419.277 872.591 419.277H894.031C895.184 419.277 896.268 419.496 897.282 419.934C898.296 420.372 899.178 420.96 899.928 421.698C900.665 422.447 901.253 423.329 901.691 424.343C902.129 425.358 902.348 426.441 902.348 427.594V435.185H894.031V427.594ZM916.198 455.917V444.608C916.198 443.456 916.412 442.378 916.838 441.375C917.276 440.372 917.87 439.49 918.619 438.729C919.368 437.969 920.25 437.375 921.265 436.949C922.279 436.51 923.345 436.291 924.463 436.291H945.904V427.594H918.775V419.277H945.904C947.068 419.277 948.152 419.496 949.155 419.934C950.169 420.372 951.051 420.96 951.8 421.698C952.55 422.447 953.143 423.329 953.581 424.343C954.008 425.358 954.221 426.441 954.221 427.594V464.234H945.904V456.643C945.823 457.68 945.547 458.66 945.074 459.582C944.59 460.516 943.973 461.329 943.224 462.02C942.486 462.712 941.639 463.254 940.682 463.646C939.725 464.038 938.711 464.234 937.639 464.234H924.463C923.345 464.234 922.279 464.015 921.265 463.576C920.25 463.138 919.368 462.551 918.619 461.813C917.87 461.064 917.276 460.182 916.838 459.167C916.412 458.153 916.198 457.069 916.198 455.917ZM924.463 444.608V455.917H945.904V444.608H924.463ZM993.489 427.594H976.336V464.234H968.071V419.277H976.336V427.214C976.394 426.119 976.647 425.081 977.097 424.101C977.546 423.133 978.146 422.292 978.895 421.577C979.644 420.862 980.509 420.297 981.489 419.882C982.48 419.479 983.535 419.277 984.653 419.277H993.489C994.641 419.277 995.713 419.496 996.705 419.934C997.708 420.372 998.589 420.96 999.35 421.698C1000.11 422.447 1000.71 423.329 1001.15 424.343C1001.59 425.358 1001.81 426.441 1001.81 427.594V435.185H993.489V427.594Z" fill="currentColor"/>
            </g>
        </g>
    </g>
    <defs>
        <clipPath id="clip0_121_12">
            <rect width="1495.26" height="464.234" fill="currentColor"/>
        </clipPath>
        <clipPath id="clip1_121_12">
            <rect width="1495.26" height="326.596" fill="currentColor"/>
        </clipPath>
        <clipPath id="clip2_121_12">
            <rect width="1495.26" height="326.596" fill="currentColor"/>
        </clipPath>
        <clipPath id="clip3_121_12">
            <rect width="508.388" height="60.5354" fill="currentColor" transform="translate(493.435 403.698)"/>
        </clipPath>
        <clipPath id="clip4_121_12">
            <rect width="508.388" height="60.5354" fill="currentColor" transform="translate(493.435 403.698)"/>
        </clipPath>
    </defs>
</svg>
